<svg xmlns="http://www.w3.org/2000/svg" viewBox="0 0 244.4 88.02"><defs><style>.cls-1,.cls-2,.cls-3,.cls-4,.cls-5{isolation:isolate;}.cls-2,.cls-3,.cls-4,.cls-5{font-size:43.05px;font-family:Futura-Medium, Futura;font-weight:500;}.cls-2,.cls-3,.cls-4,.cls-5,.cls-6{fill:#1d1d1b;}.cls-3{letter-spacing:-0.01em;}.cls-4{letter-spacing:0.01em;}.cls-5{letter-spacing:-0.04em;}</style></defs><g id="Capa_2" data-name="Capa 2"><g id="Capa_1-2" data-name="Capa 1"><g class="cls-1"><text class="cls-2" transform="translate(0 75.59)">ME</text><text class="cls-3" transform="translate(65.73 75.59)">S</text><text class="cls-2" transform="translate(90.48 75.59)">A</text></g><g class="cls-1"><text class="cls-2" transform="translate(122.19 75.59) scale(1.02 1)"><tspan xml:space="preserve"> L</tspan></text><text class="cls-2" transform="translate(154.86 75.59) scale(1.02 1)">I</text></g><g class="cls-1"><text class="cls-4" transform="translate(167.81 75.59)">S</text><text class="cls-5" transform="translate(193.52 75.59)">T</text><text class="cls-2" transform="translate(212.51 75.59)">A</text></g><path class="cls-6" d="M162.07,5.6S151.67-2.17,142.37,1s-13.69,16.49-13.69,16.49l-3.22-6.4a20.9,20.9,0,0,0-3-4.43,25.58,25.58,0,0,0-5.1-4.7c-2.81-1.64-3.79-2-10-1.92s-13,4.79-16.42,10.53a15.39,15.39,0,0,0-1.7,8.24c.17,1.61,1.4,3.75,2.66,5.44a14.68,14.68,0,0,0,5.08,3.82,38.08,38.08,0,0,0,4.53,1.49c2.38.61,4.5.94,7.16,1.67,9.77,2.67,20.53,4.71,20.53,4.71,1.3-2.13,29.78-3.12,36.87-12.09S162.07,5.6,162.07,5.6ZM95,22.47a6.45,6.45,0,0,1-1.4-3.31,10.36,10.36,0,0,1,2.6-8.61c2.59-2.81,7.26-6.7,13.35-6.7a13.4,13.4,0,0,1,12.56,8.08c-21.64-3.68-19.2,14.55-19.2,14.55A14.85,14.85,0,0,1,95,22.47Zm31.22,9.18s-5.42-1.17-10.64-2.66-10-3.2-9.25-7.14c0,0,1.43-6.45,10.52-7.06S127.6,30.41,127.6,30.41l.18,1.49Zm25.14-5.46c-3.36,2.1-20.75,6-20.75,6s.1-15,8.11-18.51,14.34,3.48,14.92,5.73S154.69,24.08,151.33,26.19Zm5.86-.67c1.31-6.83-1.35-10.52-4.53-13-6.35-5-14.59-3.63-15.08-3.13,6.23-6.33,8.93-5.56,10.81-5.49s13.26,2.83,15.71,10.59S157.19,25.52,157.19,25.52Z"/><text class="cls-2" transform="translate(116.92 67.21)">|</text></g></g></svg>