<svg xmlns="http://www.w3.org/2000/svg" viewBox="0 0 82.85 83.25"><defs><style>.cls-1,.cls-2{fill:#1d1d1b;}.cls-2{isolation:isolate;font-size:45px;font-family:Futura-Medium, Futura;font-weight:500;}</style></defs><g id="Capa_2" data-name="Capa 2"><g id="Capa_1-2" data-name="Capa 1"><path class="cls-1" d="M76.24,5.85S65.36-2.27,55.64,1,41.33,18.26,41.33,18.26L38,11.57a21.63,21.63,0,0,0-3.15-4.63A27.36,27.36,0,0,0,29.48,2C26.54.31,25.51-.12,19,0S5.36,5,1.81,11A16.22,16.22,0,0,0,0,19.64c.18,1.68,1.46,3.92,2.78,5.68a15.22,15.22,0,0,0,5.31,4,39.8,39.8,0,0,0,4.74,1.56c2.48.63,4.7,1,7.48,1.74,10.21,2.79,21.46,4.93,21.46,4.93,1.36-2.23,31.13-3.27,38.55-12.64S76.24,5.85,76.24,5.85ZM6.09,23.48A6.74,6.74,0,0,1,4.63,20a10.87,10.87,0,0,1,2.72-9c2.7-2.93,7.58-7,14-7a14,14,0,0,1,13.13,8.45C11.81,8.62,14.36,27.68,14.36,27.68A15.44,15.44,0,0,1,6.09,23.48Zm32.64,9.6S33.06,31.86,27.6,30.3,17.1,27,17.93,22.84c0,0,1.5-6.75,11-7.38S40.2,31.79,40.2,31.79l.19,1.55ZM65,27.37c-3.51,2.2-21.69,6.25-21.69,6.25s.1-15.74,8.47-19.36,15,3.64,15.6,6S68.52,25.17,65,27.37Zm6.12-.7c1.37-7.14-1.41-11-4.73-13.59-6.64-5.2-15.25-3.79-15.77-3.27C57.15,3.19,60,4,61.93,4.07S75.8,7,78.36,15.14,71.13,26.67,71.13,26.67Z"/><text class="cls-2" transform="translate(29.04 70.26)">|</text></g></g></svg>